<svg width="800" height="800" viewBox="0 0 800 800" fill="none" xmlns="http://www.w3.org/2000/svg">
<rect x="113" y="93" width="574" height="615" rx="143" fill="white"/>
<path d="M478.668 66.6666H322C287.333 66.6666 259 94.6666 259 129.333V160.667C259 195.333 287 223.333 321.667 223.333H478.668C513.334 223.333 541.334 195.333 541.334 160.667V129.333C541.668 94.6666 513.334 66.6666 478.668 66.6666Z" fill="#A3A5A7"/>
<path d="M357.917 565.003C351.583 565.003 345.25 562.67 340.25 557.67L290.25 507.67C280.583 498.003 280.583 482.003 290.25 472.337C299.917 462.67 315.917 462.67 325.583 472.337L357.917 504.67L473.583 389.003C483.25 379.337 499.25 379.337 508.917 389.003C518.583 398.67 518.583 414.67 508.917 424.337L375.583 557.67C370.917 562.67 364.25 565.003 357.917 565.003Z" fill="#A3A5A7"/>
</svg>
